<svg width="32" height="28" viewBox="0 0 32 28" fill="none" xmlns="http://www.w3.org/2000/svg">
<path d="M5.80575 7.70986H5.81425M3.4033 5.338C4.04054 4.70906 4.9047 4.35575 5.80575 4.35575C6.7068 4.35575 7.57096 4.70906 8.2082 5.338M1 2.96533C1.63109 2.34225 2.38031 1.84799 3.20488 1.51077C4.02945 1.17356 4.91323 1 5.80574 1C6.69826 1 7.58203 1.17356 8.40661 1.51077C9.23118 1.84799 9.9804 2.34225 10.6115 2.96533" stroke="#EC4046" stroke-width="1.5" stroke-linecap="round" stroke-linejoin="round"/>
<path d="M26.1943 7.70986H26.2028M23.7919 5.338C24.4291 4.70906 25.2933 4.35575 26.1943 4.35575C27.0954 4.35575 27.9595 4.70906 28.5967 5.338M21.3885 2.96533C22.0196 2.34225 22.7689 1.84799 23.5934 1.51077C24.418 1.17356 25.3018 1 26.1943 1C27.0868 1 27.9706 1.17356 28.7952 1.51077C29.6197 1.84799 30.3689 2.34225 31 2.96533" stroke="#EC4046" stroke-width="1.5" stroke-linecap="round" stroke-linejoin="round"/>
<path d="M19.3983 11.9034H23.6459M23.6459 11.9034V16.0969M23.6459 11.9034L17.2439 18.2239C16.4478 19.0101 16.0004 20.0762 16.0002 21.1879M12.6021 11.9034H8.35449M8.35449 11.9034V16.0969M8.35449 11.9034L14.7565 18.2239C15.5526 19.0101 15.9999 20.0762 16.0002 21.1879M16.0002 21.1879V27.0001M16.0002 21.1879V21.9679" stroke="#EC4046" stroke-width="2" stroke-linecap="round" stroke-linejoin="round"/>
</svg>
