<svg width="26" height="26" viewBox="0 0 26 26" fill="none" xmlns="http://www.w3.org/2000/svg">
<path d="M2.50001 9.25H23.5M2.50001 16.75H23.5M12.375 1.75C10.2691 5.12451 9.15273 9.02233 9.15273 13C9.15273 16.9777 10.2691 20.8755 12.375 24.25M13.625 1.75C15.7308 5.12451 16.8472 9.02233 16.8472 13C16.8472 16.9777 15.7308 20.8755 13.625 24.25M24.25 13C24.25 19.2132 19.2132 24.25 13 24.25C6.7868 24.25 1.75 19.2132 1.75 13C1.75 6.7868 6.7868 1.75 13 1.75C19.2132 1.75 24.25 6.7868 24.25 13Z" stroke="#EC4046" stroke-width="2" stroke-linecap="round" stroke-linejoin="round"/>
</svg>
