<svg width="18" height="28" viewBox="0 0 18 28" fill="none" xmlns="http://www.w3.org/2000/svg">
<path d="M8.6875 27.125H8.45C8.24961 27.0703 8.07266 26.9515 7.94623 26.7867C7.81981 26.6219 7.75088 26.4202 7.75 26.2125V14.625H4.2125C3.16158 14.625 2.1537 14.2075 1.41059 13.4644C0.667477 12.7213 0.25 11.7134 0.25 10.6625V1.1875C0.253237 0.939866 0.353049 0.703286 0.528167 0.528167C0.703286 0.353049 0.939866 0.253237 1.1875 0.25H8.6875C8.93513 0.253237 9.17171 0.353049 9.34683 0.528167C9.52195 0.703286 9.62176 0.939866 9.625 1.1875V7.75H14.7C15.2697 7.74526 15.8304 7.89209 16.3246 8.17545C16.8188 8.4588 17.2288 8.86848 17.5125 9.3625C17.7977 9.85656 17.9479 10.417 17.9479 10.9875C17.9479 11.558 17.7977 12.1184 17.5125 12.6125L9.5 26.65C9.41947 26.7946 9.30159 26.915 9.15868 26.9986C9.01576 27.0821 8.85304 27.1258 8.6875 27.125ZM2.125 2.125V10.6625C2.125 11.2161 2.34493 11.7471 2.73641 12.1386C3.1279 12.5301 3.65886 12.75 4.2125 12.75H8.6875C8.93513 12.7532 9.17171 12.853 9.34683 13.0282C9.52195 13.2033 9.62176 13.4399 9.625 13.6875V22.6625L15.875 11.6875C15.9945 11.4781 16.0573 11.2411 16.0573 11C16.0573 10.7589 15.9945 10.5219 15.875 10.3125C15.7528 10.0916 15.5705 9.90984 15.3493 9.78818C15.1281 9.66652 14.877 9.60995 14.625 9.625H8.6875C8.43987 9.62176 8.20329 9.52195 8.02817 9.34683C7.85305 9.17171 7.75324 8.93513 7.75 8.6875V2.125H2.125Z" fill="#EC4046"/>
</svg>
