<svg width="458" height="301" viewBox="0 0 458 301" fill="none" xmlns="http://www.w3.org/2000/svg">
<path d="M374.152 159.605C373.504 160.382 318.853 243.613 291.655 284.793C289.967 287.353 290.879 288.973 292.264 291.052C304.166 308.956 338.879 362.306 345.298 370.525C349.596 376.03 354.807 378.856 362.739 378.789C406.44 378.456 450.142 378.634 493.852 378.634C496.549 378.634 499.263 378.752 501.952 378.604C506.562 378.353 509.26 375.645 509.588 371.42C509.876 367.736 507.883 364.843 505.97 361.913C480.885 323.375 393.082 188.695 374.152 159.605Z" fill="#EC4046" fill-opacity="0.05"/>
<path d="M374.187 159.017L374.446 159.414C383.74 173.697 409.635 213.431 436.559 254.743C464.474 297.576 493.494 342.105 506.263 361.723C506.338 361.837 506.413 361.952 506.488 362.066C508.319 364.864 510.224 367.774 509.937 371.447C509.937 371.448 509.937 371.448 509.937 371.448L509.588 371.42C509.26 375.645 506.562 378.353 501.952 378.604L374.187 159.017ZM374.187 159.017L373.884 159.381M374.187 159.017L373.884 159.381M373.884 159.381C373.849 159.422 373.763 159.548 373.646 159.719C373.522 159.902 373.348 160.161 373.127 160.492C372.684 161.155 372.05 162.11 371.245 163.325C369.635 165.756 367.341 169.232 364.521 173.51C358.881 182.066 351.139 193.829 342.567 206.856C341.237 208.878 339.886 210.93 338.521 213.006C322.289 237.673 303.906 265.609 291.363 284.6L291.363 284.6M373.884 159.381L291.363 284.6M291.363 284.6C290.48 285.939 290.252 287.076 290.463 288.169M291.363 284.6L290.463 288.169M290.463 288.169C290.669 289.233 291.285 290.213 291.972 291.246L290.463 288.169Z" stroke="#EC4046" stroke-opacity="0.08" stroke-width="0.7"/>
<path d="M319.413 58.7136C337.502 86.4279 355.543 114.164 374.08 142.633C375.081 141.176 375.705 140.31 376.282 139.422C419.839 72.4671 463.389 5.50446 506.971 -61.4434C509.02 -64.5877 511.101 -67.6802 508.651 -71.4016C506.258 -75.049 502.344 -74.9972 498.374 -74.9972C453.824 -74.9602 361.458 -74.975 360.25 -74.9972C359.505 -75.0046 358.809 -74.9972 358.161 -74.975C353.582 -74.8197 349.324 -72.5854 346.819 -69.0415C341.16 -61.0217 309.584 -14.4637 292.36 11.3788C290.679 13.9016 290.967 15.655 292.584 18.0595C301.636 31.5467 310.537 45.1301 319.405 58.721L319.413 58.7136Z" fill="#EC4046" fill-opacity="0.05"/>
<path d="M319.338 59.2591L319.346 59.2517C333.063 80.2667 346.752 101.296 360.653 122.65C365.008 129.34 369.383 136.061 373.787 142.824L374.073 143.263L374.369 142.831C374.722 142.317 375.03 141.874 375.306 141.478C375.806 140.758 376.202 140.188 376.575 139.613C386.819 123.866 397.063 108.118 407.307 92.3702C440.619 41.1606 473.932 -10.0503 507.264 -61.2525L507.358 -61.3965C508.345 -62.9102 509.361 -64.4693 509.834 -66.1092C510.33 -67.8308 510.229 -69.6411 508.944 -71.5936C506.479 -75.3502 502.458 -75.3487 498.601 -75.3473L498.374 -75.3472L498.374 -75.3472C453.82 -75.3102 361.46 -75.3251 360.256 -75.3472L360.253 -75.3472C359.504 -75.3547 358.803 -75.3472 358.149 -75.3248C353.467 -75.166 349.105 -72.882 346.533 -69.2436L346.533 -69.2433C340.871 -61.2192 309.293 -14.6578 292.069 11.1847L292.068 11.1847C291.202 12.4849 290.816 13.6292 290.886 14.7847C290.955 15.9313 291.472 17.0334 292.293 18.2546C301.344 31.7398 310.244 45.3216 319.112 58.9122L319.338 59.2591Z" stroke="#EC4046" stroke-opacity="0.08" stroke-width="0.7"/>
<path d="M158.805 147.834C156.388 144.12 91.1952 43.5394 89.4184 40.8094C88.0097 38.908 85.8406 37.9758 83.3994 37.9019H10.7472C6.52112 37.9019 3.0634 41.823 3.42358 45.8995C3.50362 46.8835 3.79176 47.7861 4.23999 48.6147C4.44009 49.029 67.6155 146.384 68.3839 147.561C69.6885 149.676 69.8486 152.355 68.544 154.693C68.1358 155.388 1.99887 257.375 1.99887 257.375C1.27051 258.617 0.902326 260.053 1.02239 261.562C1.35055 265.298 4.64019 268.206 8.62617 268.354C8.62617 268.354 80.9822 268.317 81.2303 268.317C83.8716 268.132 86.0727 266.77 87.3693 264.847C87.4494 264.699 96.726 250.427 96.726 250.427L115.88 220.841C115.88 220.841 158.605 154.929 158.789 154.611C160.005 152.384 160.086 149.81 158.789 147.819L158.805 147.834Z" fill="#EC4046" fill-opacity="0.05"/>
<path d="M10.7472 37.5519C6.31195 37.5519 2.69773 41.6525 3.07483 45.9291C3.15924 46.9646 3.4628 47.9136 3.93214 48.7812L3.93215 48.7812C3.94149 48.7986 3.95207 48.8158 3.95663 48.8232L3.95783 48.8251C3.96805 48.8418 3.98184 48.8639 3.99879 48.8908C4.03282 48.9449 4.08161 49.0216 4.14444 49.12C4.27022 49.317 4.45359 49.6026 4.6906 49.9707C5.16468 50.7071 5.8541 51.7749 6.72818 53.127C8.47638 55.8311 10.9637 59.6728 13.9451 64.2746C19.908 73.4784 27.8477 85.7235 35.8052 97.9923C51.6877 122.48 67.6418 147.064 68.0883 147.748C69.3264 149.759 69.4773 152.298 68.241 154.517C68.2404 154.518 68.2396 154.52 68.2384 154.521C68.2359 154.525 68.232 154.532 68.2263 154.541L68.1821 154.61C68.1445 154.669 68.0912 154.752 68.0227 154.859C67.8858 155.072 67.6887 155.378 67.4353 155.77C66.9286 156.555 66.1973 157.687 65.2736 159.114C63.4261 161.969 60.8092 166.01 57.6804 170.84C51.4226 180.499 43.1173 193.312 34.8247 206.104C26.532 218.896 18.2522 231.666 12.0455 241.238L4.54783 252.801L2.44806 256.039L1.89495 256.892L1.75315 257.11L1.71726 257.166L1.70823 257.179L1.70597 257.183C1.70547 257.184 1.70521 257.184 1.99887 257.375L1.70521 257.184L1.7009 257.191L1.6969 257.198C0.934668 258.498 0.547387 260.005 0.673477 261.59L0.673728 261.593C1.01908 265.524 4.47155 268.55 8.61319 268.703L8.61318 268.704H8.62635L8.62617 268.354C8.62635 268.704 8.62662 268.704 8.62718 268.704L8.62965 268.704H8.63953L8.67879 268.704L8.83392 268.704L9.439 268.703L11.7359 268.702L19.9359 268.698L44.8354 268.685L81.2303 268.667H81.2425L81.2547 268.666C84.0042 268.473 86.303 267.055 87.6596 265.043L87.6691 265.028L87.6772 265.013C87.6739 265.019 87.7028 264.973 87.7821 264.85C87.8542 264.737 87.9577 264.577 88.0883 264.375C88.3495 263.971 88.7183 263.401 89.1588 262.722C90.0396 261.363 91.2066 259.565 92.3712 257.772C93.5358 255.979 94.6978 254.191 95.5688 252.85L96.6207 251.232L96.9153 250.779L96.9928 250.659L97.0127 250.629L97.0178 250.621L97.019 250.619L97.0193 250.618C97.0194 250.618 97.0195 250.618 96.726 250.427L97.0195 250.618L97.0198 250.618L116.173 221.032L116.123 220.999C116.173 221.031 116.174 221.031 116.174 221.031L116.175 221.029L116.181 221.02L116.204 220.984L116.296 220.843L116.653 220.291L118.009 218.199L122.852 210.728C126.86 204.544 132.207 196.295 137.559 188.036C148.257 171.528 158.994 154.956 159.092 154.787L159.096 154.779C160.358 152.469 160.462 149.763 159.094 147.647L159.098 147.643C157.89 145.787 140.988 119.713 124.165 93.7625L120.524 88.1461C105.005 64.2059 90.5361 41.8852 89.7117 40.6185L89.7059 40.6096L89.6996 40.6011C88.2143 38.5964 85.9349 37.6285 83.41 37.552V37.5519H83.3994H10.7472Z" stroke="#EC4046" stroke-opacity="0.08" stroke-width="0.7"/>
<path d="M364.235 147.309C364.187 147.235 221.836 -71.513 221.628 -71.7424C220.195 -73.6733 217.826 -74.8793 215.121 -74.9163H66.9989C62.5407 -74.9163 58.9389 -71.587 58.9389 -67.5031C58.9389 -66.2158 59.3071 -65.0098 59.9234 -63.9519C59.9234 -63.9519 197.28 147.087 197.416 147.309C198.728 149.462 198.889 152.184 197.536 154.529L123.987 267.591L57.7943 369.423C57.178 370.444 56.8098 371.657 56.8098 372.937C56.8098 376.947 60.2035 380.158 64.4616 380.35H212.92C215.657 380.35 218.114 379.063 219.587 377.058L364.363 154.529C365.716 152.184 365.548 149.462 364.243 147.309H364.235ZM254.564 264.077C253.252 266.008 251.171 267.554 248.385 267.554C246.584 267.525 177.694 267.599 175.365 267.591C171.571 267.591 167.689 264.033 167.713 260.785C167.729 259.268 167.961 257.833 168.698 256.59L235.627 153.701C236.939 151.356 236.771 148.67 235.467 146.554C234.05 144.379 171.307 48.1187 170.955 47.4084C170.506 46.5798 170.218 45.6698 170.138 44.6858C169.77 40.6019 173.14 36.666 177.502 36.666C183.465 36.666 247.057 36.666 250.562 36.666C253.02 36.74 255.229 37.8793 256.613 39.5809C256.901 39.9583 325.271 145.06 326.4 146.82C327.649 148.796 327.625 151.393 326.4 153.627C326.032 154.234 255.325 262.908 254.564 264.077Z" fill="#EC4046" fill-opacity="0.05"/>
<path d="M59.63 -63.761L59.9234 -63.9519C59.63 -63.761 59.6305 -63.7601 59.6316 -63.7585L59.6363 -63.7513L59.655 -63.7225L59.7296 -63.608L60.0241 -63.1555L61.1726 -61.3908L65.5323 -54.6925L81.0941 -30.7827C93.9734 -10.9944 111.147 15.3924 128.325 41.7861C145.503 68.1798 162.686 94.5804 175.582 114.396C182.03 124.305 187.407 132.566 191.176 138.358C193.06 141.254 194.542 143.533 195.556 145.09L196.716 146.874L197.016 147.336L197.098 147.462C197.112 147.483 197.118 147.492 197.117 147.492C198.366 149.54 198.517 152.122 197.237 154.347L123.694 267.401L123.987 267.591L123.694 267.401L57.5008 369.232L57.5007 369.232L57.4947 369.242C56.8472 370.314 56.4598 371.59 56.4598 372.937C56.4598 377.16 60.0284 380.5 64.4458 380.7L64.4537 380.7H64.4616H212.92C215.766 380.7 218.329 379.361 219.869 377.265L219.875 377.257L219.88 377.249L364.656 154.72L364.661 154.712L364.666 154.704C366.087 152.24 365.908 149.381 364.542 147.127L364.44 146.959H364.425C362.297 143.689 327.8 90.6788 293.285 37.6505C275.475 10.2881 257.66 -17.0792 244.285 -37.6203C237.597 -47.8908 232.019 -56.4548 228.107 -62.4583C226.15 -65.46 224.61 -67.8218 223.556 -69.4366C223.029 -70.2441 222.624 -70.8649 222.348 -71.2858C222.21 -71.4961 222.105 -71.6568 222.033 -71.7658C221.997 -71.8203 221.969 -71.8623 221.95 -71.8913L221.926 -71.9267L221.917 -71.9402C221.915 -71.9422 221.912 -71.9461 221.909 -71.9508L221.909 -71.9509C220.407 -73.9756 217.932 -75.2278 215.125 -75.2662V-75.2663H215.121H66.9989C62.375 -75.2663 58.5889 -71.8068 58.5889 -67.5031C58.5889 -66.1476 58.9768 -64.8815 59.6209 -63.7757L59.6253 -63.7682L59.63 -63.761ZM175.366 267.241H175.365C173.573 267.241 171.734 266.397 170.341 265.146C168.944 263.891 168.052 262.278 168.063 260.789C168.079 259.304 168.306 257.941 168.995 256.775C168.996 256.773 168.997 256.77 168.999 256.768L235.92 153.892L235.927 153.882L235.932 153.872C237.31 151.41 237.132 148.589 235.765 146.37L235.76 146.363C235.646 146.188 235.135 145.404 234.292 144.111C229.895 137.363 216.453 116.738 203.105 96.2409C195.151 84.028 187.231 71.861 181.277 62.7029C178.301 58.1238 175.815 54.2971 174.063 51.593C173.187 50.2409 172.495 49.1697 172.016 48.4256C171.776 48.0535 171.591 47.7635 171.462 47.5614C171.398 47.4602 171.348 47.3816 171.314 47.326C171.293 47.2924 171.28 47.2719 171.274 47.261C171.27 47.2552 171.268 47.2522 171.268 47.2513L171.262 47.2419C170.836 46.4531 170.563 45.5899 170.487 44.6574L170.487 44.6544C170.137 40.7692 173.352 37.016 177.502 37.016H177.537H177.574H177.613H177.652H177.693H177.735H177.778H177.823H177.869H177.916H177.965H178.015H178.066H178.118H178.171H178.226H178.282H178.339H178.398H178.457H178.518H178.58H178.644H178.708H178.774H178.841H178.909H178.978H179.048H179.12H179.193H179.267H179.342H179.418H179.495H179.574H179.653H179.734H179.816H179.899H179.983H180.068H180.154H180.241H180.33H180.419H180.51H180.601H180.694H180.788H180.883H180.979H181.076H181.174H181.273H181.373H181.474H181.576H181.679H181.783H181.888H181.994H182.101H182.209H182.319H182.429H182.54H182.652H182.765H182.878H182.993H183.109H183.226H183.343H183.462H183.582H183.702H183.823H183.946H184.069H184.193H184.318H184.444H184.57H184.698H184.827H184.956H185.086H185.217H185.349H185.482H185.615H185.75H185.885H186.021H186.158H186.296H186.434H186.574H186.714H186.855H186.996H187.139H187.282H187.426H187.571H187.717H187.863H188.01H188.158H188.306H188.456H188.606H188.757H188.908H189.06H189.213H189.367H189.521H189.676H189.832H189.988H190.145H190.303H190.461H190.62H190.78H190.94H191.101H191.263H191.425H191.588H191.751H191.916H192.08H192.246H192.412H192.578H192.745H192.913H193.081H193.25H193.42H193.59H193.76H193.932H194.103H194.276H194.448H194.622H194.796H194.97H195.145H195.32H195.496H195.673H195.85H196.027H196.205H196.383H196.562H196.741H196.921H197.101H197.282H197.463H197.645H197.827H198.01H198.192H198.376H198.56H198.744H198.928H199.113H199.299H199.484H199.671H199.857H200.044H200.231H200.419H200.607H200.795H200.984H201.173H201.363H201.552H201.743H201.933H202.124H202.315H202.506H202.698H202.89H203.082H203.274H203.467H203.66H203.854H204.047H204.241H204.435H204.63H204.824H205.019H205.214H205.41H205.605H205.801H205.997H206.193H206.39H206.586H206.783H206.98H207.177H207.375H207.572H207.77H207.968H208.166H208.364H208.562H208.761H208.959H209.158H209.357H209.556H209.755H209.954H210.153H210.353H210.552H210.752H210.951H211.151H211.351H211.551H211.751H211.951H212.151H212.351H212.551H212.751H212.951H213.151H213.352H213.552H213.752H213.952H214.153H214.353H214.553H214.753H214.954H215.154H215.354H215.554H215.754H215.954H216.154H216.354H216.554H216.753H216.953H217.153H217.352H217.551H217.751H217.95H218.149H218.348H218.547H218.746H218.944H219.143H219.341H219.539H219.737H219.935H220.133H220.331H220.528H220.725H220.922H221.119H221.316H221.512H221.709H221.905H222.101H222.296H222.492H222.687H222.882H223.077H223.271H223.465H223.659H223.853H224.046H224.24H224.432H224.625H224.817H225.01H225.201H225.393H225.584H225.775H225.965H226.155H226.345H226.535H226.724H226.913H227.101H227.289H227.477H227.665H227.852H228.038H228.225H228.41H228.596H228.781H228.966H229.15H229.334H229.517H229.701H229.883H230.065H230.247H230.428H230.609H230.79H230.97H231.149H231.328H231.507H231.685H231.862H232.039H232.216H232.392H232.568H232.743H232.917H233.091H233.265H233.438H233.61H233.782H233.953H234.124H234.294H234.464H234.633H234.801H234.969H235.137H235.303H235.47H235.635H235.8H235.964H236.128H236.291H236.454H236.616H236.777H236.937H237.097H237.256H237.415H237.573H237.73H237.887H238.043H238.198H238.352H238.506H238.659H238.812H238.963H239.114H239.265H239.414H239.563H239.711H239.858H240.005H240.151H240.296H240.44H240.583H240.726H240.868H241.009H241.15H241.289H241.428H241.566H241.703H241.84H241.975H242.11H242.244H242.377H242.509H242.64H242.771H242.9H243.029H243.157H243.284H243.41H243.535H243.66H243.783H243.906H244.027H244.148H244.268H244.387H244.505H244.622H244.738H244.853H244.967H245.08H245.193H245.304H245.414H245.524H245.632H245.74H245.846H245.951H246.056H246.159H246.262H246.363H246.463H246.563H246.661H246.758H246.854H246.95H247.044H247.137H247.229H247.32H247.41H247.498H247.586H247.673H247.758H247.842H247.926H248.008H248.089H248.169H248.248H248.325H248.402H248.477H248.552H248.625H248.697H248.767H248.837H248.905H248.973H249.039H249.103H249.167H249.23H249.291H249.351H249.41H249.467H249.524H249.579H249.633H249.685H249.737H249.787H249.836H249.883H249.93H249.975H250.019H250.061H250.102H250.142H250.181H250.218H250.254H250.289H250.322H250.354H250.385H250.414H250.442H250.469H250.494H250.518H250.541H250.557C252.908 37.0883 255.017 38.178 256.336 39.7946C256.337 39.7969 256.341 39.8025 256.347 39.8115C256.372 39.8486 256.435 39.9439 256.543 40.1088C256.681 40.3185 256.881 40.6242 257.139 41.0196C257.656 41.8104 258.406 42.9594 259.355 44.4161C261.254 47.3295 263.953 51.4727 267.187 56.4396C273.655 66.3734 282.263 79.6014 290.898 92.8727C308.169 119.416 325.542 146.13 326.105 147.009C327.274 148.859 327.265 151.313 326.098 153.45L326.097 153.452L326.084 153.472L326.038 153.544C325.998 153.605 325.942 153.692 325.87 153.804C325.725 154.027 325.516 154.349 325.247 154.764C324.968 155.194 324.624 155.724 324.22 156.346C323.846 156.922 323.419 157.579 322.945 158.308C320.975 161.34 318.18 165.64 314.834 170.785C308.141 181.077 299.245 194.755 290.336 208.45C274.914 232.158 259.455 255.918 255.33 262.258L254.275 263.88C254.274 263.881 254.274 263.882 254.273 263.883C253.007 265.744 251.024 267.204 248.387 267.204C247.16 267.185 217.947 267.209 196.834 267.227C185.301 267.236 176.186 267.244 175.366 267.241Z" stroke="#EC4046" stroke-opacity="0.08" stroke-width="0.7"/>
</svg>
